<svg width="942" height="690" viewBox="0 0 942 690" fill="none" xmlns="http://www.w3.org/2000/svg">
<path d="M941.767 630.817C941.767 663.324 915.414 689.677 882.906 689.677L58.8607 689.677C26.353 689.677 0.000289708 663.324 0.00029255 630.817L0.000317262 348.145L941.767 348.146V630.817Z" fill="#B15533"/>
<path fill-rule="evenodd" clip-rule="evenodd" d="M882.906 0C915.414 0 941.766 26.3527 941.766 58.8604V248.952H0V58.8604C0 26.3528 26.3528 0.000155326 58.8604 0H882.906ZM139.893 62.238C106.086 62.2382 78.6786 89.6449 78.6786 123.453V125.499C78.6786 159.307 106.086 186.714 139.893 186.714H246.231C280.039 186.714 307.446 159.307 307.446 125.499V123.453C307.446 89.6448 280.039 62.238 246.231 62.238H139.893Z" fill="#B15533"/>
<path d="M329.496 415.213H361.139C367.97 415.213 372.39 416.318 374.399 418.528C376.609 420.738 377.715 425.359 377.715 432.391V514.363H396.098C399.111 514.363 401.121 514.764 402.125 515.568C403.13 516.171 403.632 517.577 403.632 519.787V542.992H377.715V633.1H340.345C337.131 633.1 334.519 632.096 332.51 630.087C330.501 627.877 329.496 624.964 329.496 621.347V415.213ZM291.825 415.213V505.623C291.825 508.637 292.428 510.847 293.634 512.253C295.04 513.659 298.154 514.363 302.976 514.363H317.441V542.992H267.113C258.876 542.992 253.351 541.686 250.538 539.074C247.927 536.463 246.621 530.737 246.621 521.897V438.418C246.621 427.569 248.228 421.04 251.442 418.83C254.657 416.419 261.588 415.213 272.237 415.213H291.825Z" fill="#231F20"/>
<path d="M515.427 415.213H538.632C546.668 415.213 553.298 415.816 558.522 417.022C563.946 418.227 568.567 420.638 572.385 424.254C576.403 427.871 579.416 431.989 581.426 436.61C583.636 441.03 585.343 447.861 586.549 457.103C588.357 470.966 589.261 493.167 589.261 523.705V524.609C589.261 570.617 586.951 599.147 582.33 610.197C577.709 621.849 571.079 628.881 562.44 631.292C557.819 632.498 552.093 633.1 545.262 633.1H515.427V604.471H525.673C530.897 604.471 534.212 603.768 535.618 602.361C537.225 600.955 538.029 598.745 538.029 595.731V452.583C538.029 449.569 537.225 447.359 535.618 445.953C534.212 444.546 530.897 443.843 525.673 443.843H515.427V415.213ZM503.372 443.843H493.126C487.902 443.843 484.486 444.546 482.879 445.953C481.473 447.359 480.77 449.569 480.77 452.583V595.731C480.77 598.745 481.473 600.955 482.879 602.361C484.486 603.768 487.902 604.471 493.126 604.471H503.372V633.1H473.537C458.469 633.1 447.519 628.48 440.688 619.238C435.063 611.804 431.647 594.727 430.442 568.006C429.839 557.558 429.538 543.093 429.538 524.609V523.705C429.538 476.491 432.049 447.459 437.072 436.61C439.282 431.989 442.295 427.871 446.113 424.254C450.131 420.638 454.752 418.227 459.975 417.022C465.4 415.816 472.13 415.213 480.167 415.213H503.372V443.843Z" fill="#231F20"/>
<path d="M723.745 415.213H746.348C763.425 415.213 771.964 424.958 771.964 444.446V520.993C771.964 539.074 763.124 548.115 745.444 548.115H703.855V519.486H715.608C719.225 519.486 721.435 518.883 722.238 517.678C723.243 516.271 723.745 513.961 723.745 510.746V415.213ZM691.801 548.115H683.362C679.746 548.115 677.435 548.819 676.431 550.225C675.627 551.43 675.226 553.64 675.226 556.855V633.1H649.609C639.765 633.1 633.537 631.493 630.925 628.279C628.313 625.064 627.007 617.028 627.007 604.169V540.581C627.007 531.741 628.514 526.015 631.528 523.404C634.541 520.792 640.87 519.486 650.514 519.486H691.801V548.115ZM764.43 598.443C769.452 598.443 771.964 601.256 771.964 606.882V633.1H687.581L687.28 598.443H764.43ZM711.691 443.843H683.061C678.842 443.843 676.23 444.546 675.226 445.953C674.221 447.158 673.719 449.469 673.719 452.884V486.336H640.568C633.135 486.336 628.715 485.733 627.308 484.527C626.103 483.322 625.5 479.605 625.5 473.377V447.459C625.5 436.409 627.108 428.273 630.322 423.049C633.738 417.825 641.071 415.213 652.322 415.213H711.691V443.843Z" fill="#231F20"/>
<path d="M182.414 550.91L195.952 577.986L209.971 550.91H236.352L213.396 592.005L237.208 633.1H211.042L195.952 605.811L181.237 633.1H154.696L178.561 592.005L155.873 550.91H182.414Z" fill="#231F20"/>
</svg>
